<?xml version="1.0" standalone="no"?>
<!DOCTYPE svg PUBLIC "-//W3C//DTD SVG 20010904//EN"
"http://www.w3.org/TR/2001/REC-SVG-20010904/DTD/svg10.dtd">
<svg version="1.0" xmlns="http://www.w3.org/2000/svg"
width="1280.000000pt" height="720.000000pt" viewBox="0 0 1280.000000 720.000000"
preserveAspectRatio="xMidYMid meet">

<g transform="translate(0.000000,720.000000) scale(0.100000,-0.100000)"
fill="#000000" stroke="none">
<path d="M0 3600 l0 -3600 6400 0 6400 0 0 3600 0 3600 -6400 0 -6400 0 0
-3600z m6611 1734 c21 -4 37 -9 35 -13 -3 -3 13 -5 35 -3 l39 4 0 -48 c0 -77
28 -162 72 -223 10 -13 15 -27 12 -32 -3 -5 -2 -9 3 -8 14 3 43 -13 38 -21 -3
-4 3 -14 12 -21 9 -8 14 -9 10 -3 -4 7 15 0 42 -14 27 -15 47 -31 44 -36 -4
-5 -1 -6 5 -2 6 4 19 2 29 -3 10 -5 35 -17 56 -26 20 -9 37 -20 37 -26 0 -6 5
-7 10 -4 6 3 10 1 10 -4 0 -6 3 -10 8 -10 18 3 33 -2 28 -9 -3 -5 1 -9 8 -9
14 0 90 -50 154 -101 27 -23 41 -41 37 -50 -4 -11 -2 -12 8 -4 13 11 52 -25
161 -149 86 -98 231 -352 238 -419 3 -22 -4 -27 -57 -46 -96 -33 -154 -59
-239 -108 -62 -35 -181 -130 -247 -198 l-76 -78 -12 58 c-35 160 -101 282
-214 395 -70 69 -93 85 -205 139 -118 56 -212 110 -255 147 -14 11 -15 16 -5
23 9 6 6 7 -8 4 -15 -5 -33 7 -72 44 -29 28 -52 54 -52 60 0 5 -9 14 -19 19
-29 16 -113 132 -107 148 3 8 2 12 -3 9 -12 -8 -74 111 -65 126 4 6 0 16 -9
22 -18 14 -60 134 -51 148 3 5 1 15 -6 23 -11 13 -29 159 -30 235 0 26 3 31
10 20 8 -13 10 -13 10 2 0 12 12 19 45 24 25 3 54 4 65 1 11 -3 18 -1 15 3 -3
5 7 10 22 13 47 6 394 7 434 1z m-675 -451 c-3 -7 -2 -13 3 -13 12 0 42 -81
34 -93 -3 -6 -1 -7 5 -3 7 4 13 1 14 -6 0 -7 2 -18 2 -24 1 -6 7 -18 15 -27 7
-9 10 -21 6 -27 -3 -5 1 -10 10 -10 11 0 15 -5 11 -16 -3 -8 -2 -12 4 -9 6 3
10 1 10 -4 0 -6 21 -41 48 -77 26 -37 46 -71 44 -76 -1 -5 2 -7 6 -4 13 8 63
-54 55 -67 -3 -6 -2 -8 3 -5 5 3 36 -18 68 -47 l59 -53 -41 1 c-22 1 -38 -1
-35 -5 4 -7 -8 -10 -54 -12 -10 -1 -24 -7 -32 -14 -8 -8 -23 -11 -33 -8 -11 2
-18 2 -15 -1 3 -3 -21 -19 -54 -35 -51 -26 -62 -28 -77 -16 -15 12 -16 11 -3
-5 12 -15 12 -19 -5 -32 -19 -14 -32 -19 -47 -16 -5 1 -6 -2 -3 -7 6 -10 -94
-108 -106 -105 -5 2 -7 -3 -5 -10 1 -6 -4 -11 -11 -9 -8 1 -11 -2 -7 -8 3 -5
-2 -22 -13 -38 -11 -15 -31 -51 -46 -80 -15 -29 -30 -51 -35 -48 -4 3 -8 -1
-8 -9 0 -8 4 -12 8 -10 8 6 -30 -77 -40 -85 -3 -3 -14 -22 -24 -43 -10 -24
-22 -35 -29 -31 -6 4 -8 3 -5 -3 4 -6 -1 -19 -9 -29 -9 -10 -12 -13 -8 -5 5 9
3 12 -5 7 -6 -4 -9 -12 -5 -18 7 -12 -45 -69 -57 -62 -5 3 -6 -1 -3 -9 6 -17
-82 -100 -98 -91 -6 4 -8 3 -4 -4 3 -5 -12 -25 -34 -42 -22 -17 -40 -28 -40
-24 0 4 -8 -3 -19 -14 -10 -12 -25 -22 -32 -22 -11 0 -11 2 1 11 13 9 13 10 0
6 -8 -2 -15 -10 -15 -17 0 -19 -131 -83 -230 -113 -96 -30 -174 -44 -279 -52
-69 -5 -78 -4 -72 10 3 9 2 13 -4 10 -11 -7 -25 58 -17 79 3 8 1 16 -5 18 -7
3 -12 39 -12 99 -1 51 -5 97 -10 101 -11 8 8 330 20 350 5 7 7 21 6 30 -2 13
1 16 12 12 9 -3 13 -10 10 -16 -3 -5 2 -5 12 1 11 6 48 18 84 26 87 21 127 33
117 34 -5 1 13 17 40 38 26 20 50 40 51 45 2 5 11 3 20 -4 15 -12 16 -11 4 4
-15 19 -7 42 10 32 6 -4 8 -3 5 3 -7 11 31 94 47 105 6 4 8 8 4 8 -4 0 -2 13
3 30 6 17 16 27 22 23 6 -3 7 -1 3 5 -8 14 98 188 121 196 9 4 20 1 25 -6 7
-10 8 -9 5 2 -2 8 -12 14 -21 14 -16 -2 -16 -1 0 17 9 10 21 17 26 16 6 -1 13
5 15 13 4 13 3 13 -6 0 -6 -9 -11 -10 -11 -4 0 7 55 64 121 128 112 107 123
115 139 101 14 -13 17 -13 17 0 0 8 -4 12 -9 9 -5 -4 -4 3 3 14 7 12 25 27 39
34 14 7 31 19 38 25 7 7 24 16 38 19 13 3 24 10 24 15 0 5 5 9 11 9 6 0 24 9
40 21 16 11 38 21 49 22 11 1 20 5 20 10 0 5 7 7 15 3 8 -3 15 -2 15 3 0 5 17
15 38 23 37 14 37 14 50 -16 7 -16 10 -36 8 -43z m2155 -902 c10 -1 19 -43 35
-151 17 -118 17 -357 1 -470 l-13 -85 -74 -6 c-136 -11 -248 -87 -305 -208
-116 -245 -210 -379 -360 -516 -92 -84 -224 -177 -238 -168 -6 3 -7 2 -4 -4 3
-5 -42 -32 -101 -60 -177 -83 -157 -83 -181 -5 -51 170 -180 373 -315 498 -77
72 -79 74 -49 74 42 0 197 51 258 86 134 74 253 199 305 321 8 17 18 29 24 26
5 -3 6 -1 2 5 -9 16 62 154 120 232 212 285 587 465 895 431z m-2411 -483 c0
-82 69 -245 148 -348 15 -19 26 -38 24 -43 -1 -4 1 -6 5 -5 5 2 28 -16 53 -40
25 -23 49 -42 53 -42 5 0 5 -5 1 -12 -4 -6 -3 -8 3 -5 5 3 22 -3 39 -14 27
-18 211 -109 220 -109 16 0 156 -103 216 -159 204 -191 338 -485 338 -741 0
-90 10 -82 -120 -105 -105 -18 -403 -20 -511 -3 l-77 12 -4 73 c-9 137 -86
247 -216 308 -31 15 -88 43 -126 62 -122 61 -281 177 -269 196 3 5 2 7 -4 4
-32 -20 -296 301 -298 363 0 14 -6 24 -13 23 -14 -3 -65 104 -56 119 4 6 3 8
-3 5 -5 -3 -16 14 -25 38 -10 25 -14 46 -10 49 10 6 95 30 107 31 6 0 12 3 15
6 3 3 39 21 80 41 41 20 107 57 145 83 39 26 75 48 82 48 7 0 11 3 10 7 -3 10
95 95 105 92 5 -1 7 2 4 7 -9 14 22 34 40 27 14 -5 15 -4 4 9 -10 12 -10 15 0
15 8 0 10 3 7 7 -8 7 11 33 24 33 5 0 9 -14 9 -32z"/>
<path d="M6050 5045 c0 -5 5 -17 10 -25 5 -8 10 -10 10 -5 0 6 -5 17 -10 25
-5 8 -10 11 -10 5z"/>
<path d="M6250 4626 c0 -2 7 -7 16 -10 8 -3 12 -2 9 4 -6 10 -25 14 -25 6z"/>
<path d="M5865 4921 c-3 -5 -2 -12 3 -15 5 -3 9 1 9 9 0 17 -3 19 -12 6z"/>
<path d="M5439 4663 c-13 -16 -12 -17 4 -4 9 7 17 15 17 17 0 8 -8 3 -21 -13z"/>
<path d="M5464 4658 l-19 -23 23 19 c21 18 27 26 19 26 -2 0 -12 -10 -23 -22z"/>
<path d="M5318 4523 c7 -3 16 -2 19 1 4 3 -2 6 -13 5 -11 0 -14 -3 -6 -6z"/>
<path d="M5306 4492 c-3 -5 1 -9 9 -9 8 0 12 4 9 9 -3 4 -7 8 -9 8 -2 0 -6 -4
-9 -8z"/>
<path d="M5184 4305 c-4 -9 -13 -14 -22 -13 -8 2 -16 -3 -18 -10 -1 -7 0 -8 3
-2 3 8 9 8 17 0 10 -7 16 -3 24 15 6 14 9 25 6 25 -2 0 -7 -7 -10 -15z"/>
<path d="M5018 4023 c6 -2 9 -10 6 -15 -4 -7 -2 -8 5 -4 13 9 5 26 -12 25 -9
0 -8 -2 1 -6z"/>
<path d="M5683 3907 c0 -8 6 -14 14 -14 9 0 10 4 2 14 -6 7 -12 13 -14 13 -1
0 -2 -6 -2 -13z"/>
<path d="M5576 3412 c-3 -5 1 -9 9 -9 8 0 12 4 9 9 -3 4 -7 8 -9 8 -2 0 -6 -4
-9 -8z"/>
</g>
</svg>
